<?xml version="1.0" encoding="utf-8"?>
<!-- Generator: Adobe Illustrator 19.0.0, SVG Export Plug-In . SVG Version: 6.00 Build 0)  -->
<svg version="1.1" id="Camada_1" xmlns="http://www.w3.org/2000/svg" xmlns:xlink="http://www.w3.org/1999/xlink" x="0px" y="0px"
	 viewBox="0 0 608 217.8" style="enable-background:new 0 0 608 217.8;" xml:space="preserve">
<style type="text/css">
	.st0{fill:#FBFBF2;stroke:#D9D9D9;stroke-linecap:square;stroke-miterlimit:3;}
	.st1{fill:#FFFFFF;stroke:#D9D9D9;stroke-linecap:square;stroke-miterlimit:3;}
	.st2{fill:#FFFFFF;stroke:#D9D9D9;stroke-linecap:square;stroke-miterlimit:2;}
	.st3{fill:#FBFBF2;stroke:#D9D9D9;stroke-linecap:square;stroke-miterlimit:2;}
	.st4{display:none;}
	.st5{display:inline;}
	.st6{font-family:'ArialMT';}
	.st7{font-size:11.297px;}
	.st8{letter-spacing:2;}
	.st9{display:inline;fill:#F3B27C;}
	.st10{font-size:13.351px;}
	.st11{font-size:30.81px;}
	.st12{fill:none;stroke:#C6C6C6;stroke-linecap:square;stroke-miterlimit:3;}
	.st13{fill:none;stroke:#BFBFBF;stroke-linecap:square;stroke-miterlimit:3;}
	.st14{fill:#D2D2D2;}
	.st15{font-family:'Arial-BoldMT';}
	.st16{font-size:14px;}
	.st17{display:inline;fill:#4A4747;}
	.st18{font-size:12px;}
	.st19{display:none;fill:#BC2B19;}
	.st20{display:inline;fill:#FFFFFF;}
	.st21{font-size:11px;}
</style>
<g id="XMLID_2_">
	<path id="XMLID_25_" vector-effect="non-scaling-stroke" class="st0" d="M438.6,217.3H0.5V0.5h438.2l0,0
		c0,15.5,12.7,28.1,28.3,28.1c15.6,0,28.3-12.6,28.3-28.1l0,0h112.3v216.8H495.2c0-15.5-12.7-28.1-28.3-28.1
		C451.3,189.2,438.6,201.8,438.6,217.3z"/>
	<path id="XMLID_24_" vector-effect="non-scaling-stroke" class="st1" d="M438.6,217.3H0.5V0.5h438.2l0,0
		c0,15.5,12.7,28.1,28.3,28.1v160.5C451.3,189.2,438.6,201.8,438.6,217.3z"/>
	<rect id="XMLID_23_" x="0.5" y="0.5" vector-effect="non-scaling-stroke" class="st2" width="54.1" height="216.8"/>
	<rect id="XMLID_22_" x="0.5" y="0.5" vector-effect="non-scaling-stroke" class="st3" width="13.5" height="216.8"/>
	<g id="XMLID_20_" transform="matrix(1.027,0,0,1.027,608.883,538.286)" class="st4">
		<text id="XMLID_21_" transform="matrix(0.9737 0 0 0.9737 -102.7672 -392.8127)" class="st5 st6 st7 st8">AHORRO!</text>
	</g>
	<g id="XMLID_18_" transform="matrix(0,1.027,-1.027,0,148.952,452.988)" class="st4">
		<text id="XMLID_19_" transform="matrix(0.9737 0 0 0.9737 -404.5703 116.6631)" class="st9 st6 st10">VALIDO PARA UNA VEZ</text>
	</g>
	<g id="XMLID_16_" transform="matrix(1.027,0,0,1.027,609.925,496.311)" class="st4">
		<text id="XMLID_17_" transform="matrix(0.9737 0 0 0.9737 -102.7671 -372.5051)" class="st5 st6 st11">20%</text>
	</g>
	<line id="XMLID_15_" vector-effect="non-scaling-stroke" class="st12" x1="76.8" y1="28.5" x2="186.4" y2="28.5"/>
	<line id="XMLID_14_" vector-effect="non-scaling-stroke" class="st13" x1="304" y1="28.5" x2="420.5" y2="28.5"/>
	<ellipse id="XMLID_13_" vector-effect="non-scaling-stroke" class="st14" cx="247.7" cy="28.5" rx="4" ry="4"/>
	<g id="XMLID_10_" transform="matrix(1,0,0,1,180.87,460.351)" class="st4">
		<text id="XMLID_12_" transform="matrix(1 0 0 1 -105.5417 -400.5299)" class="st5 st15 st16">Oferta Lorem ipsum dolor sit amer us nec mollis</text>
		<text id="XMLID_11_" transform="matrix(1 0 0 1 -105.5417 -381.4649)" class="st5 st15 st16">vehicula, magna tortor finibus libero</text>
	</g>
	<g id="XMLID_6_" transform="matrix(1,0,0,1,180.87,510.163)" class="st4">
		<text id="XMLID_9_" transform="matrix(1 0 0 1 -105.5417 -402.6679)" class="st17 st6 st18">Oferta Lorem ipsum dolor sit amer us nec mollis vehicula, magna</text>
		<text id="XMLID_8_" transform="matrix(1 0 0 1 -105.5417 -386.3259)" class="st17 st6 st18">tortor finibus libero, vitae posuere ante lectus in enim. mollis</text>
		<text id="XMLID_7_" transform="matrix(1 0 0 1 -105.5417 -369.9839)" class="st17 st6 st18">vehicula, magna tortor finibus libero, vitae</text>
	</g>
	<rect id="XMLID_5_" x="75.3" y="163.5" class="st19" width="194.5" height="36"/>
	<g id="XMLID_3_" transform="matrix(1,0,0,1,245.439,589.51)" class="st4">
		<text id="XMLID_4_" transform="matrix(1 0 0 1 -105.5417 -403.7369)" class="st20 st6 st21">VER OFERTA</text>
	</g>
</g>
</svg>
